# xmcd
#
# Track frame offsets: 
#        150
#        13470
#        25342
#        43562
#        55939
#        77682
#        99020
#        115717
#        131927
#        144247
#        163657
#        178225
#        194872
#        195385
#
# Disc length: 2843 seconds
#
# Revision: 59
# Processed by: cddbd v1.5.2PL0 Copyright (c) Steve Scherf et al.
# Submitted via: ExactAudioCopyFreeDBPlugin 1.0
#
DISCID=c10b190e
DTITLE=Garth Brooks - Double Live [Disc 1]
DYEAR=1998
DGENRE=Country
TTITLE0=Callin' Baton Rouge
TTITLE1=Two Of A Kind, Workin' On A Full House
TTITLE2=Shameless
TTITLE3=Papa Loved Mama
TTITLE4=The Thunder Rolls (The Long Version)
TTITLE5=We Shall Be Free
TTITLE6=Unanswered Prayers
TTITLE7=Standing Outside The Fire
TTITLE8=Garth Brooks - Steve Wariner - Longneck Bottle (With Special Gu
TTITLE8=est Steve Wariner)
TTITLE9=It's Your Song
TTITLE10=Much Too Young (To Feel This Damn Old)
TTITLE11=The River
TTITLE12=Audience Applause
TTITLE13=Tearin' It Up (And Burnin' It Down)
EXTD=YEAR: 1998
EXTT0=
EXTT1=
EXTT2=
EXTT3=
EXTT4=
EXTT5=
EXTT6=
EXTT7=
EXTT8=
EXTT9=
EXTT10=
EXTT11=
EXTT12=
EXTT13=
PLAYORDER=
